HIERARCHY
ROOT Pelvis
{
	OFFSET 0.000000 0.000000 0.000000
	CHANNELS 6 Xposition Yposition Zposition Xrotation Yrotation Zrotation
	JOINT LeftUpLeg_virtual
	{
		OFFSET 0.000000 0.000000 0.000000
		CHANNELS 3 Xrotation Yrotation Zrotation
		JOINT LeftUpLeg
		{
			OFFSET 18.735201 -5.666702 -4.541200
			CHANNELS 3 Xrotation Yrotation Zrotation
			JOINT LeftLeg
			{
				OFFSET -0.021200 -31.938179 0.493100
				CHANNELS 3 Xrotation Yrotation Zrotation
				JOINT LeftFoot
				{
					OFFSET 0.021200 -31.938179 -4.336299
					CHANNELS 3 Xrotation Yrotation Zrotation
					JOINT LeftToeBase
					{
						OFFSET 0.943001 -26.722000 15.023500
						CHANNELS 3 Xrotation Yrotation Zrotation
						End Site
						{
							OFFSET 0 0 0
						}
					}
				}
			}
		}
	}
	JOINT RightUpLeg_virtual
	{
		OFFSET 0.000000 0.000000 0.000000
		CHANNELS 3 Xrotation Yrotation Zrotation
		JOINT RightUpLeg
		{
			OFFSET -18.735201 -5.666702 -4.541200
			CHANNELS 3 Xrotation Yrotation Zrotation
			JOINT RightLeg
			{
				OFFSET 0.018946 -31.938133 0.493100
				CHANNELS 3 Xrotation Yrotation Zrotation
				JOINT RightFoot
				{
					OFFSET -0.018946 -31.938126 -4.336299
					CHANNELS 3 Xrotation Yrotation Zrotation
					JOINT RightToeBase
					{
						OFFSET -0.943001 -26.722004 15.023500
						CHANNELS 3 Xrotation Yrotation Zrotation
						End Site
						{
							OFFSET 0 0 0
						}
					}
				}
			}
		}
	}
	JOINT Hips_virtual
	{
		OFFSET 0.000000 0.000000 0.000000
		CHANNELS 3 Xrotation Yrotation Zrotation
		JOINT Hips
		{
			OFFSET -0.000000 -0.000000 -0.000000
			CHANNELS 3 Xrotation Yrotation Zrotation
			JOINT Spine
			{
				OFFSET 0.000000 10.199997 -0.299500
				CHANNELS 3 Xrotation Yrotation Zrotation
				JOINT Spine1
				{
					OFFSET 0.000000 11.900002 -1.516600
					CHANNELS 3 Xrotation Yrotation Zrotation
					JOINT Spine2
					{
						OFFSET 0.000000 13.600006 -2.842500
						CHANNELS 3 Xrotation Yrotation Zrotation
						JOINT Neck_virtual
						{
							OFFSET 0.000000 0.000000 0.000000
							CHANNELS 3 Xrotation Yrotation Zrotation
							JOINT Neck
							{
								OFFSET 0.000000 9.624100 -2.890100
								CHANNELS 3 Xrotation Yrotation Zrotation
								JOINT Head
								{
									OFFSET 0.000000 14.068802 -1.351900
									CHANNELS 3 Xrotation Yrotation Zrotation
									End Site
									{
										OFFSET 0 0 0
									}
								}
							}
						}
						JOINT LeftShoulder_virtual
						{
							OFFSET 0.000000 0.000000 0.000000
							CHANNELS 3 Xrotation Yrotation Zrotation
							JOINT LeftShoulder
							{
								OFFSET 15.263000 10.923401 -0.547700
								CHANNELS 3 Xrotation Yrotation Zrotation
								JOINT LeftArm
								{
									OFFSET 25.438599 -2.830597 -13.032500
									CHANNELS 3 Xrotation Yrotation Zrotation
									JOINT LeftForeArm
									{
										OFFSET 29.960503 0.000000 0.000000
										CHANNELS 3 Xrotation Yrotation Zrotation
										JOINT LeftHand
										{
											OFFSET 27.849251 0.000000 0.000000
											CHANNELS 3 Xrotation Yrotation Zrotation
											End Site
											{
												OFFSET 0 0 0
											}
										}
									}
								}
							}
						}
						JOINT RightShoulder_virtual
						{
							OFFSET 0.000000 0.000000 0.000000
							CHANNELS 3 Xrotation Yrotation Zrotation
							JOINT RightShoulder
							{
								OFFSET -15.263000 10.923401 -0.547700
								CHANNELS 3 Xrotation Yrotation Zrotation
								JOINT RightArm
								{
									OFFSET -25.438599 -2.830597 -13.032500
									CHANNELS 3 Xrotation Yrotation Zrotation
									JOINT RightForeArm
									{
										OFFSET -29.960503 0.000000 0.000000
										CHANNELS 3 Xrotation Yrotation Zrotation
										JOINT RightHand
										{
											OFFSET -27.849251 0.000000 0.000000
											CHANNELS 3 Xrotation Yrotation Zrotation
											End Site
											{
												OFFSET 0 0 0
											}
										}
									}
								}
							}
						}
					}
				}
			}
		}
	}
}
MOTION
Frames: 6
Frame Time: 0.03333333
-1.463940 74.332565 6.979462 0.000000 0.000000 0.000000 26.322055 -23.039973 8.777268 -80.776768 -7.082999 25.946663 65.687432 -2.724088 4.883898 -4.867565 2.327568 -22.313222 0.000000 0.000000 0.000000 26.322055 -23.039973 8.777268 -73.369817 -1.025331 -25.993881 70.021474 1.142145 -7.530588 -16.339708 -4.798783 21.273188 0.000000 0.000000 0.000000 26.322055 -23.039973 8.777268 0.000000 0.000001 0.000000 14.946039 2.507329 -0.803725 8.954929 1.454251 -0.667652 0.000000 0.000000 0.000000 8.929217 1.567218 -0.769628 -3.068386 1.147551 -3.131432 0.000000 0.000000 0.000000 8.929217 1.567218 -0.769628 3.858311 -6.469473 9.422129 -49.881056 5.784877 -65.370948 0.001603 -89.198384 0.001468 0.000000 0.000000 0.000000 8.929217 1.567218 -0.769628 3.960234 12.222857 4.273397 -38.946917 11.840050 48.020820 179.999909 86.265084 -179.999909 0.000000 0.000000 0.000000 
-1.482050 74.402153 7.053963 0.000000 0.000000 0.000000 26.447170 -23.103088 8.831168 -80.697811 -7.018665 26.002330 65.629177 -2.770119 4.909750 -5.009014 2.356490 -22.377663 0.000000 0.000000 0.000000 26.447170 -23.103088 8.831168 -73.339887 -1.143093 -25.863254 69.836649 0.986937 -7.667101 -16.366332 -4.644962 21.218012 0.000000 0.000000 0.000000 26.447170 -23.103088 8.831168 -0.000001 0.000000 0.000000 14.953866 2.373395 -0.842463 8.942649 1.377979 -0.669284 0.000000 0.000000 0.000000 8.917272 1.494828 -0.768341 -3.051498 1.184121 -3.074848 0.000000 0.000000 0.000000 8.917272 1.494828 -0.768341 3.797569 -6.379665 8.897872 -49.025052 5.833146 -65.558594 -179.993885 -89.663698 -179.994281 0.000000 0.000000 0.000000 8.917272 1.494828 -0.768341 3.972546 12.168645 4.140061 -38.744453 11.705563 49.039969 179.999623 84.928000 -179.999636 0.000000 0.000000 0.000000 
-1.512481 74.441910 7.107832 0.000000 0.000000 0.000000 26.594013 -23.182895 8.901889 -80.651639 -7.000040 26.073173 65.607457 -2.797163 4.939309 -5.145444 2.390531 -22.483289 0.000000 0.000000 0.000000 26.594013 -23.182895 8.901889 -73.378662 -1.217672 -25.708422 69.727502 0.966586 -7.779199 -16.392181 -4.629156 21.149399 0.000000 0.000000 0.000000 26.594013 -23.182895 8.901889 0.000003 0.000000 0.000001 14.960054 2.227192 -0.861391 8.932681 1.291004 -0.662406 0.000000 0.000000 0.000000 8.908017 1.411638 -0.757964 -3.046563 1.228670 -3.024532 0.000000 0.000000 0.000000 8.908017 1.411638 -0.757964 3.730458 -6.286349 8.218745 -48.220210 5.755350 -65.566599 -179.999964 -88.580450 179.999950 0.000000 0.000000 0.000000 8.908017 1.411638 -0.757964 3.981628 12.107283 3.979450 -38.415863 11.620496 49.978769 179.999923 83.383489 -179.999909 0.000000 0.000000 0.000000 
-1.556365 74.452866 7.142593 0.000000 0.000000 0.000000 26.761060 -23.274549 8.992038 -80.637097 -7.015914 26.153793 65.615360 -2.808458 4.976252 -5.275074 2.428167 -22.621192 0.000000 0.000000 0.000000 26.761060 -23.274549 8.992038 -73.483301 -1.248136 -25.531466 69.686071 0.940342 -7.895723 -16.425948 -4.624348 21.105759 0.000000 0.000000 0.000000 26.761060 -23.274549 8.992038 0.000000 0.000000 -0.000001 14.968909 2.079292 -0.858080 8.925415 1.196946 -0.646760 0.000000 0.000000 0.000000 8.901918 1.320520 -0.738020 -3.054528 1.279126 -2.983391 0.000000 0.000000 0.000000 8.901918 1.320520 -0.738020 3.660234 -6.192010 7.427262 -47.464012 5.638786 -65.420959 179.999568 -87.565948 179.999500 0.000000 0.000000 0.000000 8.901918 1.320520 -0.738020 3.982092 12.033534 3.810697 -38.063288 11.622193 50.879643 179.999117 81.797881 -179.999144 0.000000 0.000000 0.000000 
-1.614981 74.436295 7.159042 0.000000 0.000000 0.000000 26.939118 -23.373887 9.098854 -80.649132 -7.055917 26.243223 65.649340 -2.812644 5.022983 -5.397026 2.468436 -22.783897 0.000000 0.000000 0.000000 26.939118 -23.373887 9.098854 -73.635764 -1.207975 -25.378456 69.676139 0.967632 -8.007942 -16.372069 -4.637156 21.203858 0.000000 0.000000 0.000000 26.939118 -23.373887 9.098854 -0.000001 0.000000 0.000000 14.987149 1.941965 -0.834399 8.922846 1.103807 -0.624598 0.000000 0.000000 0.000000 8.900819 1.229003 -0.711225 -3.074366 1.331372 -2.952135 0.000000 0.000000 0.000000 8.900819 1.229003 -0.711225 3.590613 -6.098769 6.593867 -46.754725 5.551500 -65.181253 179.999827 -86.628321 179.999896 0.000000 0.000000 0.000000 8.900819 1.229003 -0.711225 3.972946 11.944950 3.645316 -37.723872 11.625853 51.744219 179.999308 80.145057 -179.999322 0.000000 0.000000 0.000000 
-1.688884 74.394676 7.157579 0.000000 0.000000 0.000000 27.113505 -23.478398 9.215793 -80.677621 -7.111922 26.342151 65.706024 -2.817928 5.080494 -5.509848 2.510401 -22.965428 0.000000 0.000000 0.000000 27.113505 -23.478398 9.215793 -73.831333 -1.129200 -25.225499 69.731997 1.005141 -8.120459 -16.319668 -4.658603 21.339548 0.000000 0.000000 0.000000 27.113505 -23.478398 9.215793 0.000000 0.000000 0.000000 15.020353 1.827955 -0.795368 8.927365 1.021125 -0.598631 0.000000 0.000000 0.000000 8.906889 1.146674 -0.680946 -3.100444 1.380628 -2.930721 0.000000 0.000000 0.000000 8.906889 1.146674 -0.680946 3.524317 -6.006584 5.793819 -46.093255 5.532720 -64.919247 179.999663 -85.788802 179.999650 0.000000 0.000000 0.000000 8.906889 1.146674 -0.680946 3.954984 11.845348 3.498253 -37.170070 11.796813 52.364393 -179.998256 78.394254 179.998284 0.000000 0.000000 0.000000 
